<svg width="50" height="50" viewBox="0 0 50 50" fill="none" xmlns="http://www.w3.org/2000/svg">
<circle cx="25" cy="25" r="24.5" fill="#A1EDCA" stroke="#5D8E77"/>
<path fill-rule="evenodd" clip-rule="evenodd" d="M16.132 14C16.7571 14 17.264 14.5068 17.264 15.132V18.9053C17.264 19.6059 17.5421 20.2777 18.0375 20.7731C18.2533 20.9889 18.5027 21.1634 18.7733 21.2918V15.132C18.7733 14.5068 19.2801 14 19.9053 14C20.5304 14 21.0373 14.5068 21.0373 15.132V21.2918C21.31 21.1623 21.5589 20.9869 21.7729 20.7731C22.0182 20.5278 22.2127 20.2367 22.3456 19.9161C22.4782 19.5956 22.5466 19.2523 22.5466 18.9053V15.132C22.5466 14.5068 23.0534 14 23.6786 14C24.3037 14 24.8106 14.5068 24.8106 15.132V18.9053C24.8106 19.5495 24.6836 20.1875 24.4372 20.7826C24.1907 21.3777 23.8294 21.9185 23.3738 22.3739C22.9183 22.8294 22.3775 23.1907 21.7824 23.4373C21.6617 23.4873 21.5393 23.5324 21.4154 23.5724V33.5851C21.4154 34.4185 20.7395 35.0944 19.906 35.0944C19.0724 35.0944 18.3967 34.4185 18.3967 33.5851V23.5729C17.6644 23.3362 16.9909 22.9282 16.4367 22.3739C15.5168 21.4541 15 20.2063 15 18.9053V15.132C15 14.5068 15.5068 14 16.132 14ZM31.3009 14C28.6267 14 26.8619 16.6064 26.8619 19.2659C26.8619 21.3854 27.9829 23.4711 29.7916 24.2308V33.5851C29.7916 34.4187 30.4673 35.0944 31.3009 35.0944C32.1345 35.0944 32.8103 34.4187 32.8103 33.5851V24.2308C34.6192 23.4711 35.74 21.3854 35.74 19.2659C35.74 16.6064 33.9753 14 31.3009 14Z" fill="white"/>
</svg>
